<svg width="72" height="31" viewBox="0 0 72 31" fill="none" xmlns="http://www.w3.org/2000/svg">
<mask id="mask0_1310_11586" style="mask-type:luminance" maskUnits="userSpaceOnUse" x="0" y="0" width="72" height="31">
<path d="M71.6875 0H0V31H71.6875V0Z" fill="white"/>
</mask>
<g mask="url(#mask0_1310_11586)">
<path d="M30.7988 10.1462H26.9146V12.4882H25.5342V15.355H26.9146V19.9419C26.9146 22.4587 28.1332 23.4111 30.8464 23.4111C31.6748 23.4111 32.2174 23.3432 32.6363 23.2653V20.4958C32.4268 20.5249 32.265 20.5443 31.9699 20.5443C31.1702 20.5443 30.7893 20.1945 30.7893 19.3296V15.355H32.6268V12.4882H30.7893V10.1462H30.7988Z" fill="white" fill-opacity="0.8"/>
<path d="M37.8803 14.4124H37.8042V12.498H33.9199V23.1876H37.8042V17.7845C37.8042 16.2976 38.5563 15.5396 40.0129 15.5396C40.4128 15.5396 40.8126 15.6174 41.1458 15.7632V12.4202C40.8506 12.3133 40.5366 12.2646 40.2033 12.2646C38.9562 12.2646 38.1469 13.013 37.8803 14.4124Z" fill="white" fill-opacity="0.8"/>
<path d="M49.0485 18.4935C49.0485 19.4945 48.4868 20.2137 47.5729 20.2137C46.5922 20.2137 46.1068 19.5528 46.1068 18.4839V12.4879H42.2224V19.3488C42.2224 21.9143 43.5076 23.4011 45.8211 23.4011C47.4015 23.4011 48.4773 22.6237 48.9914 21.1855H49.0676V23.1679H52.9518V12.4783H49.0676V18.4935H49.0485Z" fill="white" fill-opacity="0.8"/>
<path d="M60.9105 16.7244L59.0159 16.3648C58.0639 16.1801 57.7973 15.9663 57.7973 15.5873V15.5776C57.7973 15.1208 58.2638 14.8487 58.9778 14.8487C59.8156 14.8487 60.2725 15.325 60.3297 15.8303L60.3392 15.9178H63.8713V15.8497C63.8713 13.9061 62.2242 12.2542 58.9778 12.2542C55.9313 12.2542 54.0843 13.5757 54.0843 15.8011V15.8109C54.0843 17.4628 55.1888 18.5999 57.2641 18.9886L59.1587 19.3481C60.025 19.5133 60.3392 19.7369 60.3392 20.1256V20.1353C60.3392 20.5628 59.8727 20.8253 59.1206 20.8253C58.2448 20.8253 57.7783 20.4559 57.6259 19.834L57.6069 19.7563H53.856L53.8655 19.8438C54.1034 21.972 55.8266 23.4199 59.1301 23.4199C62.1671 23.4199 64.1949 21.9914 64.1949 19.6883V19.6785C64.1758 18.046 63.1667 17.1519 60.9105 16.7244Z" fill="white" fill-opacity="0.8"/>
<path d="M71.6683 15.3543V12.4875H69.8308V10.1455H65.9466V12.4875H64.5471V15.3543H65.9276V19.9411C65.9276 22.4581 67.1461 23.4104 69.8594 23.4104C70.6877 23.4104 71.2303 23.3424 71.6492 23.2647V20.495C71.4398 20.5241 71.2779 20.5437 70.9828 20.5437C70.1831 20.5437 69.8023 20.1938 69.8023 19.3289V15.3543H71.6683Z" fill="white" fill-opacity="0.8"/>
<path d="M20.9829 15.9276C20.0689 15.3833 18.9837 15.053 17.7365 14.9364V14.8489C18.7361 14.6837 19.6024 14.3436 20.3546 13.8285C21.1066 13.3135 21.6874 12.6624 22.1159 11.8849C22.5347 11.1075 22.7536 10.2232 22.7536 9.2417V9.20282C22.7536 7.92006 22.4299 6.80251 21.7826 5.8696C21.1352 4.92696 20.2213 4.20784 19.0313 3.7025C17.8413 3.19718 16.4227 2.94452 14.7757 2.94452H12.6527V0H7.70214V2.94452H0.0192871V28.2109H7.70214V31H12.6527V28.2109H14.9661C16.8035 28.2109 18.3934 27.9292 19.7357 27.3558C21.0781 26.7824 22.1063 25.9662 22.8298 24.8971C23.5534 23.8282 23.9151 22.5551 23.9151 21.0683V21.0295C23.9151 19.9216 23.658 18.9304 23.1345 18.0558C22.6204 17.1812 21.8969 16.4718 20.9829 15.9276ZM13.0811 7.38558C14.1854 7.38558 15.0612 7.63824 15.6896 8.13386C16.318 8.63918 16.6321 9.34859 16.6321 10.2718V10.3107C16.6321 11.2825 16.2799 12.0308 15.5659 12.5652C14.8614 13.0997 13.8427 13.362 12.5098 13.362H6.19792V7.38558H13.0811ZM17.5842 20.5533C17.5842 21.5931 17.2224 22.3899 16.4988 22.9341C15.7753 23.4784 14.7472 23.7602 13.4143 23.7602H6.18841V17.3367H13.1858C14.1378 17.3367 14.9376 17.4533 15.5849 17.6963C16.2323 17.9392 16.7273 18.2987 17.0701 18.775C17.4033 19.2511 17.5747 19.8341 17.5747 20.5242V20.5533H17.5842Z" fill="white" fill-opacity="0.8"/>
</g>
</svg>
