<svg width="32" height="32" viewBox="0 0 32 32" fill="none" xmlns="http://www.w3.org/2000/svg">
<path d="M16.27 18.4007C17.3355 18.4007 18.1993 17.5287 18.1993 16.4529C18.1993 15.3772 17.3355 14.5051 16.27 14.5051C15.2046 14.5051 14.3408 15.3772 14.3408 16.4529C14.3408 17.5287 15.2046 18.4007 16.27 18.4007Z" fill="white" fill-opacity="0.8"/>
<path d="M27.8081 18.4008C28.8736 18.4008 29.7373 17.5287 29.7373 16.4529C29.7373 15.3772 28.8736 14.5051 27.8081 14.5051C26.7426 14.5051 25.8789 15.3772 25.8789 16.4529C25.8789 17.5287 26.7426 18.4008 27.8081 18.4008Z" fill="white" fill-opacity="0.8"/>
<path d="M27.8081 30.0695C28.8736 30.0695 29.7373 29.1974 29.7373 28.1216C29.7373 27.0459 28.8736 26.1738 27.8081 26.1738C26.7426 26.1738 25.8789 27.0459 25.8789 28.1216C25.8789 29.1974 26.7426 30.0695 27.8081 30.0695Z" fill="white" fill-opacity="0.8"/>
<path d="M31.5715 4.02893C31.4192 1.89521 29.7247 0.165167 27.6113 0.0113854C26.2595 -0.0847282 25.041 0.434285 24.1843 1.31853C23.5369 1.99133 22.6611 2.395 21.7282 2.395H21.3855C20.4335 2.395 19.5387 1.99133 18.8723 1.29931C18.0917 0.491953 17.0065 0.0113854 15.807 0.0113854C14.6075 0.0113854 13.5223 0.511176 12.7417 1.29931C12.0753 1.99133 11.1805 2.395 10.2285 2.395H9.90486C8.97194 2.395 8.0771 2.02977 7.42977 1.35698C7.29649 1.22242 7.16322 1.08786 7.02994 0.972522C5.41161 -0.353846 3.03171 -0.315401 1.4705 1.08786C-0.41438 2.76024 -0.490536 5.68209 1.26107 7.45058C1.28011 7.4698 1.29915 7.48903 1.31819 7.50825C2.0036 8.16182 2.36534 9.08451 2.36534 10.0264V10.3532C2.36534 11.3143 1.96552 12.2178 1.28011 12.8906C0.480462 13.6787 0.00448251 14.7744 0.00448251 15.9855C0.00448251 17.1965 0.499501 18.2922 1.28011 19.0803C1.96552 19.7531 2.36534 20.6566 2.36534 21.6177V22.0599C2.36534 23.0018 1.96552 23.886 1.29915 24.5396C0.461423 25.3662 -0.0526351 26.5387 0.00448251 27.8267C0.0996785 30.095 1.92744 31.9211 4.15503 31.998C5.44969 32.0364 6.61108 31.5174 7.42977 30.6524C8.0771 29.9796 8.9529 29.5567 9.88582 29.5567H10.2476C11.1805 29.5567 12.0563 29.9604 12.7036 30.6524C13.5604 31.5559 14.7979 32.0749 16.1497 31.9788C18.2631 31.825 19.9766 30.095 20.1289 27.942C20.3003 25.3854 18.3202 23.2709 15.8261 23.2709C14.6456 23.2709 13.5604 23.7515 12.7798 24.5396C12.1134 25.2124 11.2186 25.6161 10.2856 25.6161H9.88582C8.9529 25.6161 8.03902 25.2508 7.37265 24.5588C7.35361 24.5396 7.35361 24.5396 7.33457 24.5204C6.64916 23.8476 6.24934 22.9441 6.24934 21.983V21.5985C6.24934 20.6374 6.64916 19.7339 7.33457 19.0611C8.13422 18.273 8.6102 17.1773 8.6102 15.9662C8.6102 14.7552 8.11518 13.6595 7.33457 12.8714C6.64916 12.1986 6.24934 11.2951 6.24934 10.334V9.98798C6.24934 9.02684 6.64916 8.12338 7.31553 7.45058C7.33457 7.43136 7.33457 7.43136 7.35361 7.41214C7.37265 7.39291 7.37265 7.39291 7.39169 7.37369C8.05806 6.70089 8.9529 6.29722 9.90486 6.29722H10.2476C11.1995 6.29722 12.0944 6.70089 12.7607 7.39291C13.5413 8.20027 14.6266 8.68083 15.8261 8.68083C17.0255 8.68083 18.1108 8.18104 18.8914 7.39291C19.5577 6.70089 20.4526 6.29722 21.4045 6.29722H21.7092C22.6611 6.29722 23.556 6.70089 24.2223 7.39291C25.0029 8.20027 26.0882 8.68083 27.2876 8.68083C29.7627 8.70006 31.7428 6.58556 31.5715 4.02893Z" fill="white" fill-opacity="0.8"/>
</svg>
