<svg width="46" height="40" viewBox="0 0 46 40" fill="none" xmlns="http://www.w3.org/2000/svg">
<path d="M15.0625 30.5841H2V2H43.9583V30.5841H30.1042" stroke="white" stroke-width="4"/>
<path d="M32.1155 15.7549H30.0975V19.1719H28.1248V9.66895H32.2637C33.2179 9.66895 33.9787 9.91393 34.546 10.4039C35.1133 10.8939 35.397 11.6525 35.397 12.6797C35.397 13.8015 35.1133 14.5945 34.546 15.0587C33.9787 15.5228 33.1685 15.7549 32.1155 15.7549ZM33.0438 13.7757C33.3017 13.5479 33.4307 13.1869 33.4307 12.6926C33.4307 12.1983 33.2996 11.8459 33.0374 11.6353C32.7795 11.4247 32.4163 11.3194 31.9478 11.3194H30.0975V14.1174H31.9478C32.4163 14.1174 32.7817 14.0035 33.0438 13.7757Z" fill="white"/>
<path d="M20.0081 9.66895H21.9937V17.4634H26.7001V19.1719H20.0081V9.66895Z" fill="white"/>
<path d="M14.6505 17.7985C15.119 17.7985 15.4994 17.7469 15.7917 17.6438C16.3461 17.4461 16.6233 17.0786 16.6233 16.5413C16.6233 16.2276 16.4858 15.9848 16.2107 15.8128C15.9357 15.6452 15.5037 15.4969 14.9149 15.368L13.9091 15.1423C12.9206 14.9188 12.2372 14.676 11.859 14.4138C11.2186 13.9754 10.8984 13.2899 10.8984 12.3572C10.8984 11.5062 11.2078 10.7992 11.8268 10.2362C12.4457 9.67312 13.3547 9.3916 14.5538 9.3916C15.5553 9.3916 16.4084 9.65808 17.1133 10.191C17.8225 10.7197 18.1943 11.489 18.2286 12.4991H16.3203C16.2859 11.9274 16.0367 11.5213 15.5725 11.2806C15.263 11.1216 14.8783 11.042 14.4185 11.042C13.907 11.042 13.4987 11.1452 13.1935 11.3515C12.8884 11.5578 12.7358 11.8458 12.7358 12.2154C12.7358 12.5549 12.8862 12.8085 13.1871 12.9761C13.3805 13.0879 13.7931 13.219 14.4249 13.3694L16.0624 13.7627C16.7802 13.9346 17.3218 14.1645 17.6871 14.4525C18.2544 14.8995 18.5381 15.5464 18.5381 16.3931C18.5381 17.2613 18.205 17.9833 17.5388 18.5593C16.8769 19.1309 15.94 19.4167 14.7279 19.4167C13.4901 19.4167 12.5166 19.1352 11.8074 18.5722C11.0982 18.0048 10.7437 17.2269 10.7437 16.2383H12.6391C12.6992 16.6724 12.8174 16.9969 12.9937 17.2118C13.316 17.603 13.8683 17.7985 14.6505 17.7985Z" fill="white"/>
<path d="M22.3244 31.0876L22.1958 31.0366C22.026 31.4651 21.8671 31.866 21.7191 32.2393C21.5793 32.6088 21.4419 32.9722 21.3069 33.3295L21.4356 33.3804C21.7329 33.4983 22.0086 33.4872 22.2626 33.347C22.5248 33.2031 22.7226 32.9628 22.856 32.6261C23.0137 32.2283 23.0431 31.9036 22.9443 31.652C22.8513 31.4026 22.6447 31.2145 22.3244 31.0876ZM23.3227 28.5938L23.2027 28.5462C23.049 28.9173 22.8989 29.2792 22.7525 29.6319C22.6142 29.9808 22.4905 30.293 22.3814 30.5684L22.51 30.6194C22.8074 30.7372 23.0565 30.7262 23.2575 30.5863C23.4609 30.4403 23.6257 30.2082 23.7519 29.8899C23.8756 29.5778 23.9016 29.3119 23.8298 29.0922C23.7605 28.8664 23.5915 28.7003 23.3227 28.5938ZM19.237 33.0933L19.4225 32.6251L20.0385 32.7736C20.1931 32.4171 20.3431 32.0552 20.4887 31.6879C20.6367 31.3146 20.7846 30.9412 20.9326 30.5678L21.0345 30.3108C21.1825 29.9374 21.3292 29.5671 21.4748 29.1999C21.6227 28.8265 21.765 28.4509 21.9015 28.073L21.3474 27.7684L21.533 27.3002L22.7509 27.7829L23.133 26.8189L23.6648 27.0297L23.2827 27.9937L23.7545 28.1806C23.7659 28.1851 23.7745 28.1885 23.7802 28.1908C23.7859 28.1931 23.7916 28.1953 23.7973 28.1976L24.1794 27.2336L24.7112 27.4444L24.3146 28.4451C24.7601 28.7066 25.0274 29.0003 25.1167 29.326C25.214 29.6479 25.1936 29.9833 25.0553 30.3321C24.9826 30.5158 24.8693 30.6763 24.7156 30.8136C24.5677 30.9533 24.3669 31.0508 24.1134 31.1061C23.8599 31.1615 23.5413 31.1556 23.1577 31.0885C23.7209 31.4038 24.0675 31.7395 24.1976 32.0956C24.3278 32.4517 24.3225 32.8072 24.1818 33.1622C24.092 33.3887 23.9618 33.592 23.7911 33.7723C23.6205 33.9525 23.3937 34.0822 23.111 34.1613C22.8306 34.2343 22.4798 34.2263 22.0586 34.1373L21.6147 35.2573L21.0829 35.0466L21.505 33.9816C21.4625 33.9719 21.4184 33.9579 21.3727 33.9398C21.3326 33.9239 21.2898 33.9069 21.244 33.8888L20.9867 33.7868L20.5683 34.8426L20.0365 34.6319L20.4549 33.5761L19.237 33.0933Z" fill="white"/>
<path d="M31.2917 31.2916C31.2917 36.1011 27.3928 39.9999 22.5833 39.9999C17.7739 39.9999 13.875 36.1011 13.875 31.2916C13.875 26.4821 17.7739 22.5833 22.5833 22.5833C27.3928 22.5833 31.2917 26.4821 31.2917 31.2916ZM15.7411 31.2916C15.7411 35.0704 18.8045 38.1338 22.5833 38.1338C26.3622 38.1338 29.4255 35.0704 29.4255 31.2916C29.4255 27.5127 26.3622 24.4494 22.5833 24.4494C18.8045 24.4494 15.7411 27.5127 15.7411 31.2916Z" fill="white"/>
</svg>
