<svg width="36" height="36" viewBox="0 0 36 36" fill="none" xmlns="http://www.w3.org/2000/svg">
<g clip-path="url(#clip0_1310_11538)">
<path d="M17.8492 10.8604C19.6972 10.8078 21.4651 11.5044 22.8239 12.744C22.8799 12.7941 22.9358 12.8442 22.9935 12.8959C24.3851 14.2084 25.0628 16.0585 25.1338 17.9409C25.1621 19.763 24.4773 21.4842 23.2559 22.824C23.1862 22.9012 23.1862 22.9012 23.115 22.9801C22.7464 23.3682 22.3303 23.6765 21.8879 23.976C21.8037 24.0339 21.8037 24.0339 21.7178 24.093C20.1863 25.0813 18.2531 25.3216 16.4879 24.984C14.5706 24.5511 12.9518 23.3816 11.8893 21.7324C11.2956 20.7658 10.8987 19.57 10.8719 18.432C10.8665 18.3132 10.8665 18.3132 10.8609 18.1921C10.8151 16.439 11.3895 14.6246 12.5954 13.3245C12.7383 13.1762 12.8843 13.0315 13.0319 12.888C13.0921 12.828 13.1522 12.7681 13.2142 12.7063C14.479 11.503 16.1326 10.955 17.8492 10.8604ZM16.2719 12.384C16.0976 12.6455 16.1128 12.7716 16.1189 13.0815C16.1209 13.2089 16.1209 13.2089 16.1228 13.3388C16.1245 13.4039 16.1262 13.4689 16.1279 13.536C16.0697 13.5335 16.0115 13.531 15.9516 13.5284C15.8362 13.5255 15.8362 13.5255 15.7184 13.5225C15.6424 13.52 15.5664 13.5175 15.4881 13.5149C15.2358 13.5386 15.1057 13.6018 14.9039 13.752C14.7939 13.9721 14.8152 14.1573 14.8319 14.4C14.9586 14.6293 15.0118 14.676 15.2639 14.76C15.549 14.76 15.8342 14.76 16.1279 14.76C16.1279 15.6153 16.1279 16.4707 16.1279 17.352C15.8903 17.352 15.6527 17.352 15.4079 17.352C15.1825 17.4095 15.0832 17.4619 14.9174 17.622C14.8012 17.8422 14.7917 17.97 14.8319 18.216C15.0155 18.4393 15.1327 18.5562 15.4079 18.648C15.6455 18.648 15.8831 18.648 16.1279 18.648C16.1279 19.5033 16.1279 20.3587 16.1279 21.24C15.8428 21.24 15.5577 21.24 15.2639 21.24C14.967 21.3587 14.967 21.3587 14.8319 21.6C14.8078 21.8651 14.7962 22.0394 14.9264 22.275C15.1591 22.4991 15.4034 22.4718 15.7094 22.4685C15.7877 22.4678 15.8659 22.4672 15.9465 22.4665C16.0064 22.4657 16.0662 22.4648 16.1279 22.464C16.1237 22.5274 16.1196 22.5908 16.1153 22.6561C16.0849 23.1743 16.0849 23.1743 16.2809 23.6385C16.5278 23.7834 16.6391 23.8185 16.9199 23.76C17.1432 23.5764 17.2602 23.4592 17.3519 23.184C17.3568 23.0596 17.358 22.935 17.3564 22.8105C17.3549 22.6961 17.3534 22.5818 17.3519 22.464C17.7796 22.464 18.2073 22.464 18.6479 22.464C18.6435 22.5872 18.639 22.7105 18.6344 22.8375C18.6344 23.158 18.6457 23.3654 18.8639 23.616C19.0885 23.7657 19.1186 23.7803 19.3679 23.751C19.4169 23.7463 19.4659 23.7417 19.5164 23.7369C19.717 23.6665 19.7734 23.5877 19.8719 23.4C19.8765 23.235 19.8743 23.0698 19.8674 22.905C19.8795 22.6339 19.8795 22.6339 19.9439 22.392C20.1494 22.2221 20.3368 22.1387 20.5863 22.0472C21.1343 21.8316 21.4271 21.3812 21.6753 20.8682C21.9109 20.2569 21.8898 19.5797 21.6798 18.9635C21.4529 18.4761 21.088 18.1046 20.6639 17.784C20.7366 17.5964 20.8128 17.4138 20.9007 17.2327C21.241 16.5085 21.2833 15.8928 21.0194 15.1335C20.827 14.6827 20.5782 14.2298 20.1107 14.029C19.9439 13.896 19.9439 13.896 19.9131 13.7622C19.9025 13.5916 19.9008 13.4234 19.9034 13.2525C19.921 12.8079 19.921 12.8079 19.7392 12.4194C19.5362 12.2789 19.3987 12.245 19.1519 12.24C18.9324 12.3298 18.8248 12.4043 18.6974 12.6045C18.624 12.9182 18.6393 13.2141 18.6479 13.536C18.2202 13.536 17.7926 13.536 17.3519 13.536C17.3586 13.3711 17.3586 13.3711 17.3654 13.203C17.365 12.8766 17.3277 12.6579 17.1359 12.384C16.8471 12.179 16.5664 12.1974 16.2719 12.384Z" fill="white"/>
<path d="M23.913 10.3095C25.9728 11.9619 27.3209 14.2537 27.6337 16.8917C27.7889 18.7628 27.5627 20.5628 26.712 22.248C26.6706 22.3324 26.6292 22.4167 26.5865 22.5036C26.2612 23.1505 25.8747 23.7039 25.416 24.264C25.3644 24.3321 25.3128 24.4002 25.2596 24.4704C25.2162 24.5211 25.1727 24.5718 25.128 24.624C25.0805 24.624 25.0329 24.624 24.984 24.624C24.9695 24.6631 24.955 24.7021 24.9401 24.7424C24.7987 24.9819 24.6001 25.1442 24.39 25.3215C24.345 25.3595 24.3001 25.3976 24.2538 25.4367C22.1349 27.1955 19.5695 27.8298 16.848 27.648C16.3568 27.5948 15.8832 27.4932 15.408 27.36C15.3598 27.3469 15.3115 27.3338 15.2618 27.3203C13.631 26.8653 12.0115 25.883 10.872 24.624C10.872 24.5765 10.872 24.529 10.872 24.48C10.8245 24.48 10.7769 24.48 10.728 24.48C8.81451 22.2352 8.22135 19.6721 8.35198 16.776C8.57187 14.3486 9.96281 12.0321 11.8083 10.4831C15.2972 7.68681 20.358 7.57797 23.913 10.3095ZM13.032 11.304C12.9958 11.3328 12.9597 11.3615 12.9225 11.3911C12.1423 12.015 11.492 12.6961 10.944 13.536C10.9079 13.5895 10.8718 13.6431 10.8346 13.6983C10.138 14.7845 9.69581 16.1328 9.64798 17.424C9.64511 17.4928 9.64223 17.5615 9.63926 17.6324C9.58983 19.9907 10.4575 22.0777 12.0184 23.8323C12.1598 23.9681 12.2763 24.0451 12.456 24.12C12.456 24.1675 12.456 24.215 12.456 24.264C14.0351 25.658 16.2526 26.4748 18.36 26.352C20.4008 26.161 22.5752 25.4135 23.976 23.832C23.976 23.7845 23.976 23.737 23.976 23.688C24.0235 23.688 24.071 23.688 24.12 23.688C25.5805 22.1947 26.373 19.9942 26.352 17.928C26.2828 15.9745 25.6311 14.1852 24.3863 12.6787C24.264 12.528 24.264 12.528 24.12 12.312C24.0725 12.312 24.0249 12.312 23.976 12.312C23.9522 12.2407 23.9285 12.1694 23.904 12.096C23.8565 12.096 23.8089 12.096 23.76 12.096C23.7362 12.0247 23.7125 11.9534 23.688 11.88C22.2583 10.4729 20.0829 9.63349 18.0897 9.64402C16.2808 9.68847 14.4637 10.1441 13.032 11.304Z" fill="white"/>
<path d="M17.3521 18.648C17.7322 18.6406 18.1124 18.6332 18.5041 18.6255C18.6229 18.6223 18.7417 18.619 18.8641 18.6156C19.7971 18.6005 19.7971 18.6005 20.2035 18.9042C20.4979 19.2084 20.6077 19.5298 20.6281 19.9485C20.6082 20.3944 20.4548 20.6651 20.1286 20.9745C19.7686 21.2116 19.4911 21.2576 19.0606 21.2541C18.9709 21.2537 18.8812 21.2534 18.7887 21.253C18.6189 21.251 18.6189 21.251 18.4456 21.249C17.9043 21.2446 17.9043 21.2446 17.3521 21.24C17.3521 20.3847 17.3521 19.5293 17.3521 18.648Z" fill="white"/>
<path d="M17.3521 14.7599C17.6015 14.754 17.851 14.748 18.1081 14.7419C18.2242 14.738 18.2242 14.738 18.3428 14.734C18.8446 14.7282 19.2508 14.7988 19.6241 15.1547C19.93 15.5045 19.9654 15.7894 19.9595 16.2359C19.9224 16.6674 19.6828 16.9315 19.3681 17.2079C19.1319 17.3553 18.9501 17.3689 18.6739 17.366C18.6045 17.3656 18.535 17.3652 18.4635 17.3649C18.3759 17.3636 18.2883 17.3623 18.1981 17.3609C17.7793 17.3564 17.7793 17.3564 17.3521 17.3519C17.3521 16.4965 17.3521 15.6412 17.3521 14.7599Z" fill="white"/>
<path d="M35.3744 16.8121C35.6896 16.9963 35.878 17.2237 35.9999 17.5681C36.0689 17.9891 36.0643 18.3762 35.8559 18.7561C35.644 19.0411 35.4058 19.2016 35.0639 19.2961C34.6349 19.3538 34.2742 19.3354 33.9119 19.0801C33.5783 18.7481 33.3988 18.4962 33.3899 18.0136C33.3961 17.6268 33.4623 17.3705 33.7429 17.0886C34.2161 16.6654 34.7738 16.5529 35.3744 16.8121Z" fill="white"/>
<path d="M18.5941 33.4845C18.9122 33.7086 19.1718 33.9711 19.2961 34.344C19.3487 34.8296 19.3154 35.2462 19.0081 35.64C18.7099 35.9345 18.4147 36.0251 18.0001 36.045C17.5854 36.0251 17.2902 35.9345 16.9921 35.64C16.7221 35.2941 16.6604 34.9434 16.6816 34.511C16.741 34.0699 16.9739 33.8391 17.3003 33.5663C17.6684 33.3095 18.186 33.3511 18.5941 33.4845Z" fill="white"/>
<path d="M1.89011 16.7804C2.20824 17.0046 2.46783 17.2671 2.59211 17.6399C2.63055 18.0694 2.6319 18.4289 2.37611 18.7919C2.04837 19.1212 1.7949 19.3042 1.31861 19.3184C0.877823 19.3114 0.557694 19.2079 0.244515 18.8909C-0.0145749 18.5426 -0.0547116 18.2046 -0.0342037 17.7772C0.0288206 17.3928 0.179893 17.1326 0.486953 16.8929C0.931182 16.6334 1.40763 16.6227 1.89011 16.7804Z" fill="white"/>
<path d="M18.6051 0.0612242C18.9182 0.232915 19.1115 0.445837 19.2512 0.774193C19.3574 1.15844 19.3426 1.51292 19.2194 1.88991C18.9953 2.20805 18.7327 2.46763 18.3599 2.59191C17.8637 2.64482 17.5382 2.60365 17.1359 2.30391C16.8351 2.00467 16.6941 1.74462 16.6814 1.31841C16.6885 0.877626 16.7919 0.557497 17.1089 0.244318C17.5486 -0.0827036 18.0931 -0.120004 18.6051 0.0612242Z" fill="white"/>
<path d="M30.3975 28.5885C30.693 28.7921 30.9423 29.0527 31.104 29.376C31.1567 29.8656 31.1615 30.293 30.8595 30.699C30.5531 31.0092 30.2306 31.1192 29.799 31.1355C29.4259 31.1172 29.1674 31.0387 28.8964 30.769C28.5822 30.4177 28.4891 30.1596 28.4968 29.6887C28.5296 29.3242 28.6636 29.0533 28.935 28.8135C29.4027 28.4861 29.8498 28.4059 30.3975 28.5885Z" fill="white"/>
<path d="M30.2401 4.89601C30.6007 5.02531 30.8872 5.25484 31.0591 5.60476C31.1833 6.03349 31.1775 6.46871 30.9871 6.87151C30.6213 7.26619 30.3686 7.46529 29.8261 7.51051C29.3966 7.5041 29.0692 7.3284 28.7731 7.02451C28.5215 6.6278 28.4609 6.29715 28.5121 5.83201C28.6445 5.4348 28.9038 5.21081 29.2321 4.96801C29.5362 4.81595 29.9098 4.86001 30.2401 4.89601Z" fill="white"/>
<path d="M6.87139 5.01288C7.45436 5.55319 7.45436 5.55319 7.50505 5.97447C7.5193 6.39831 7.44437 6.70583 7.19989 7.05588C6.89299 7.35491 6.62648 7.47606 6.20089 7.51038C5.83912 7.49814 5.54049 7.40868 5.27502 7.15038C4.93054 6.75669 4.86574 6.51154 4.87143 5.98432C4.92073 5.53206 5.13261 5.28452 5.47639 5.00388C5.91093 4.79042 6.44211 4.80995 6.87139 5.01288Z" fill="white"/>
<path d="M6.79047 28.6335C7.09586 28.8059 7.26451 29.0169 7.43397 29.322C7.53507 29.6927 7.53307 30.0327 7.41147 30.3975C7.18982 30.7192 6.92624 30.9792 6.55197 31.104C6.06634 31.1566 5.64972 31.1233 5.25597 30.816C4.95727 30.5136 4.87164 30.2194 4.85547 29.799C4.87531 29.3726 4.9806 29.1383 5.29169 28.841C5.73367 28.4508 6.25454 28.3846 6.79047 28.6335Z" fill="white"/>
<path d="M9.79204 25.2C9.87276 25.2687 9.95343 25.3376 10.0341 25.4064C10.079 25.4448 10.1239 25.4831 10.1702 25.5226C10.392 25.7154 10.5945 25.9262 10.8 26.136C10.5193 26.4721 10.2275 26.7905 9.91635 27.0987C9.87541 27.1395 9.83447 27.1803 9.79229 27.2224C9.66338 27.3509 9.53421 27.4792 9.40504 27.6075C9.3168 27.6953 9.22858 27.7832 9.14038 27.8711C8.92579 28.0849 8.71098 28.2985 8.49604 28.512C8.29915 28.4229 8.21041 28.371 8.07304 28.197C7.90115 27.9846 7.71967 27.8621 7.48804 27.72C7.53001 27.481 7.6014 27.364 7.7731 27.1944C7.81778 27.1497 7.86246 27.105 7.9085 27.059C7.95695 27.0117 8.0054 26.9643 8.05532 26.9156C8.10476 26.8664 8.1542 26.8173 8.20514 26.7667C8.3631 26.6099 8.52181 26.4539 8.68054 26.298C8.78779 26.1918 8.89499 26.0856 9.00215 25.9793C9.26488 25.7189 9.52828 25.4593 9.79204 25.2Z" fill="white"/>
<path d="M26.136 25.2C26.4699 25.4798 26.7894 25.7692 27.0987 26.076C27.1395 26.1165 27.1803 26.1569 27.2224 26.1986C27.3076 26.2831 27.3928 26.3677 27.4778 26.4525C27.6084 26.5824 27.7397 26.7115 27.8711 26.8406C27.9542 26.9232 28.0372 27.0059 28.1202 27.0885C28.1595 27.127 28.1989 27.1655 28.2395 27.2051C28.512 27.4793 28.512 27.4793 28.512 27.72C28.3961 27.8229 28.3961 27.8229 28.242 27.927C28.0001 28.0985 27.8205 28.2675 27.648 28.512C27.4388 28.4174 27.2904 28.3161 27.129 28.1533C27.0858 28.1101 27.0425 28.0669 26.998 28.0223C26.9522 27.9758 26.9065 27.9293 26.8593 27.8814C26.8118 27.8336 26.7643 27.7859 26.7153 27.7367C26.5638 27.5845 26.4129 27.4317 26.262 27.279C26.1592 27.1755 26.0565 27.0721 25.9537 26.9687C25.7021 26.7155 25.4509 26.4619 25.2 26.208C25.2687 26.1272 25.3376 26.0466 25.4064 25.9659C25.4448 25.921 25.4831 25.8761 25.5226 25.8298C25.7154 25.608 25.9262 25.4055 26.136 25.2Z" fill="white"/>
<path d="M27.504 7.48804C27.792 7.63204 27.792 7.63204 27.927 7.80304C28.0988 8.01537 28.2803 8.1379 28.512 8.28004C28.47 8.51904 28.3986 8.636 28.2269 8.80562C28.1822 8.85029 28.1375 8.89495 28.0915 8.94097C28.043 8.98831 27.9946 9.03564 27.9447 9.08441C27.8952 9.13355 27.8458 9.18268 27.7949 9.2333C27.6369 9.39006 27.4782 9.54605 27.3195 9.70204C27.2122 9.80821 27.105 9.91442 26.9978 10.0207C26.7351 10.281 26.4717 10.5407 26.208 10.8C26.1235 10.7316 26.0396 10.6624 25.956 10.593C25.9092 10.5546 25.8624 10.5162 25.8142 10.4766C25.7778 10.4408 25.7414 10.4049 25.704 10.368C25.704 10.3205 25.704 10.273 25.704 10.224C25.6609 10.2062 25.6178 10.1884 25.5735 10.17C25.416 10.08 25.416 10.08 25.2 9.79204C25.9603 9.03172 26.7206 8.2714 27.504 7.48804Z" fill="white"/>
<path d="M8.35204 7.48804C8.56123 7.58263 8.70963 7.68392 8.87101 7.84667C8.91424 7.8899 8.95746 7.93313 9.00199 7.97768C9.04775 8.02418 9.09351 8.07069 9.14066 8.1186C9.1882 8.16634 9.23573 8.21408 9.28471 8.26327C9.43616 8.41552 9.5871 8.56827 9.73804 8.72104C9.84075 8.82448 9.9435 8.92788 10.0463 9.03126C10.2979 9.28447 10.5491 9.53814 10.8 9.79204C10.6837 9.939 10.5635 10.083 10.44 10.224C10.3925 10.224 10.345 10.224 10.296 10.224C10.2797 10.2656 10.2634 10.3072 10.2465 10.35C10.1284 10.5525 9.97652 10.6582 9.79204 10.8C9.46316 10.4766 9.13512 10.1524 8.80766 9.82753C8.69611 9.71706 8.58436 9.60678 8.47241 9.49671C8.31178 9.33869 8.15185 9.17998 7.99204 9.02113C7.94164 8.97185 7.89124 8.92257 7.83932 8.87179C7.79319 8.82568 7.74706 8.77957 7.69954 8.73206C7.65861 8.69161 7.61768 8.65116 7.57551 8.60948C7.48804 8.49604 7.48804 8.49604 7.48804 8.28004C7.62219 8.15882 7.62219 8.15882 7.79854 8.03254C8.02581 7.86894 8.19424 7.7204 8.35204 7.48804Z" fill="white"/>
<path d="M17.3521 28.8721C17.7797 28.8721 18.2074 28.8721 18.6481 28.8721C18.6481 29.9888 18.6481 31.1055 18.6481 32.2561C18.2204 32.2561 17.7927 32.2561 17.3521 32.2561C17.3521 31.1394 17.3521 30.0226 17.3521 28.8721Z" fill="white"/>
<path d="M28.8721 17.3521C29.9888 17.3521 31.1055 17.3521 32.2561 17.3521C32.2561 17.7797 32.2561 18.2074 32.2561 18.6481C31.1394 18.6481 30.0226 18.6481 28.8721 18.6481C28.8721 18.2204 28.8721 17.7927 28.8721 17.3521Z" fill="white"/>
<path d="M3.7439 17.3521C4.86062 17.3521 5.97734 17.3521 7.1279 17.3521C7.1279 17.7797 7.1279 18.2074 7.1279 18.6481C6.01118 18.6481 4.89446 18.6481 3.7439 18.6481C3.7439 18.2204 3.7439 17.7927 3.7439 17.3521Z" fill="white"/>
<path d="M17.3521 3.7439C17.7797 3.7439 18.2074 3.7439 18.6481 3.7439C18.6481 4.86062 18.6481 5.97734 18.6481 7.1279C18.2204 7.1279 17.7927 7.1279 17.3521 7.1279C17.3521 6.01118 17.3521 4.89446 17.3521 3.7439Z" fill="white"/>
</g>
<defs>
<clipPath id="clip0_1310_11538">
<rect width="36" height="36" fill="white"/>
</clipPath>
</defs>
</svg>
