<svg width="10" height="10" viewBox="0 0 10 10" fill="none" xmlns="http://www.w3.org/2000/svg">
<g clip-path="url(#clip0_507_33560)">
<path d="M9.90926 8.03426L6.87551 5.00051L9.90926 1.96676C9.96739 1.90791 9.99998 1.82853 9.99998 1.74582C9.99998 1.6631 9.96739 1.58372 9.90926 1.52488L8.47613 0.0917554C8.44715 0.0626725 8.41272 0.0395964 8.37481 0.0238509C8.3369 0.00810526 8.29625 0 8.25519 0C8.21414 0 8.17349 0.00810526 8.13558 0.0238509C8.09766 0.0395964 8.06323 0.0626725 8.03426 0.0917554L5.00051 3.12551L1.96676 0.0917554C1.90815 0.0331707 1.82868 0.000259637 1.74582 0.000259637C1.66295 0.000259637 1.58348 0.0331707 1.52488 0.0917554L0.0917554 1.52488C0.0626725 1.55386 0.0395964 1.58829 0.0238509 1.6262C0.00810526 1.66412 0 1.70476 0 1.74582C0 1.78687 0.00810526 1.82752 0.0238509 1.86543C0.0395964 1.90335 0.0626725 1.93778 0.0917554 1.96676L3.12551 5.00051L0.0917554 8.03426C0.0331707 8.09286 0.000259637 8.17233 0.000259637 8.25519C0.000259637 8.33806 0.0331707 8.41753 0.0917554 8.47613L1.52488 9.90926C1.55386 9.93834 1.58829 9.96141 1.6262 9.97716C1.66412 9.99291 1.70476 10.001 1.74582 10.001C1.78687 10.001 1.82752 9.99291 1.86543 9.97716C1.90335 9.96141 1.93778 9.93834 1.96676 9.90926L5.00051 6.87551L8.03426 9.90926C8.09286 9.96784 8.17233 10.0008 8.25519 10.0008C8.33806 10.0008 8.41753 9.96784 8.47613 9.90926L9.90926 8.47613C9.93834 8.44715 9.96141 8.41272 9.97716 8.37481C9.99291 8.3369 10.001 8.29625 10.001 8.25519C10.001 8.21414 9.99291 8.17349 9.97716 8.13558C9.96141 8.09766 9.93834 8.06323 9.90926 8.03426Z" fill="currentColor"/>
</g>
<defs>
<clipPath id="clip0_507_33560">
<rect width="10" height="10" fill="white"/>
</clipPath>
</defs>
</svg>
