<svg width="25" height="25" viewBox="0 0 25 25" fill="none" xmlns="http://www.w3.org/2000/svg">
<path d="M9.3724 5.85932C9.09613 5.85932 8.83118 5.96907 8.63583 6.16442C8.44048 6.35977 8.33073 6.62472 8.33073 6.90099C8.33073 7.17726 8.44048 7.44221 8.63583 7.63756C8.83118 7.83291 9.09613 7.94266 9.3724 7.94266C9.64866 7.94266 9.91362 7.83291 10.109 7.63756C10.3043 7.44221 10.4141 7.17726 10.4141 6.90099C10.4141 6.62472 10.3043 6.35977 10.109 6.16442C9.91362 5.96907 9.64866 5.85932 9.3724 5.85932ZM6.42448 5.85932C6.63969 5.24939 7.03879 4.72123 7.56677 4.34765C8.09475 3.97406 8.72561 3.77344 9.3724 3.77344C10.0192 3.77344 10.65 3.97406 11.178 4.34765C11.706 4.72123 12.1051 5.24939 12.3203 5.85932H19.7891C20.0653 5.85932 20.3303 5.96907 20.5256 6.16442C20.721 6.35977 20.8307 6.62472 20.8307 6.90099C20.8307 7.17726 20.721 7.44221 20.5256 7.63756C20.3303 7.83291 20.0653 7.94266 19.7891 7.94266H12.3203C12.1051 8.55259 11.706 9.08075 11.178 9.45433C10.65 9.82792 10.0192 10.0285 9.3724 10.0285C8.72561 10.0285 8.09475 9.82792 7.56677 9.45433C7.03879 9.08075 6.63969 8.55259 6.42448 7.94266H5.20573C4.92946 7.94266 4.66451 7.83291 4.46916 7.63756C4.27381 7.44221 4.16406 7.17726 4.16406 6.90099C4.16406 6.62472 4.27381 6.35977 4.46916 6.16442C4.66451 5.96907 4.92946 5.85932 5.20573 5.85932H6.42448ZM15.6224 12.1093C15.3461 12.1093 15.0812 12.2191 14.8858 12.4144C14.6905 12.6098 14.5807 12.8747 14.5807 13.151C14.5807 13.4273 14.6905 13.6922 14.8858 13.8876C15.0812 14.0829 15.3461 14.1927 15.6224 14.1927C15.8987 14.1927 16.1636 14.0829 16.359 13.8876C16.5543 13.6922 16.6641 13.4273 16.6641 13.151C16.6641 12.8747 16.5543 12.6098 16.359 12.4144C16.1636 12.2191 15.8987 12.1093 15.6224 12.1093ZM12.6745 12.1093C12.8897 11.4994 13.2888 10.9712 13.8168 10.5976C14.3448 10.2241 14.9756 10.0234 15.6224 10.0234C16.2692 10.0234 16.9 10.2241 17.428 10.5976C17.956 10.9712 18.3551 11.4994 18.5703 12.1093H19.7891C20.0653 12.1093 20.3303 12.2191 20.5256 12.4144C20.721 12.6098 20.8307 12.8747 20.8307 13.151C20.8307 13.4273 20.721 13.6922 20.5256 13.8876C20.3303 14.0829 20.0653 14.1927 19.7891 14.1927H18.5703C18.3551 14.8026 17.956 15.3307 17.428 15.7043C16.9 16.0779 16.2692 16.2785 15.6224 16.2785C14.9756 16.2785 14.3448 16.0779 13.8168 15.7043C13.2888 15.3307 12.8897 14.8026 12.6745 14.1927H5.20573C4.92946 14.1927 4.66451 14.0829 4.46916 13.8876C4.27381 13.6922 4.16406 13.4273 4.16406 13.151C4.16406 12.8747 4.27381 12.6098 4.46916 12.4144C4.66451 12.2191 4.92946 12.1093 5.20573 12.1093H12.6745ZM9.3724 18.3593C9.09613 18.3593 8.83118 18.4691 8.63583 18.6644C8.44048 18.8598 8.33073 19.1247 8.33073 19.401C8.33073 19.6773 8.44048 19.9422 8.63583 20.1376C8.83118 20.3329 9.09613 20.4427 9.3724 20.4427C9.64866 20.4427 9.91362 20.3329 10.109 20.1376C10.3043 19.9422 10.4141 19.6773 10.4141 19.401C10.4141 19.1247 10.3043 18.8598 10.109 18.6644C9.91362 18.4691 9.64866 18.3593 9.3724 18.3593ZM6.42448 18.3593C6.63969 17.7494 7.03879 17.2212 7.56677 16.8476C8.09475 16.4741 8.72561 16.2734 9.3724 16.2734C10.0192 16.2734 10.65 16.4741 11.178 16.8476C11.706 17.2212 12.1051 17.7494 12.3203 18.3593H19.7891C20.0653 18.3593 20.3303 18.4691 20.5256 18.6644C20.721 18.8598 20.8307 19.1247 20.8307 19.401C20.8307 19.6773 20.721 19.9422 20.5256 20.1376C20.3303 20.3329 20.0653 20.4427 19.7891 20.4427H12.3203C12.1051 21.0526 11.706 21.5807 11.178 21.9543C10.65 22.3279 10.0192 22.5285 9.3724 22.5285C8.72561 22.5285 8.09475 22.3279 7.56677 21.9543C7.03879 21.5807 6.63969 21.0526 6.42448 20.4427H5.20573C4.92946 20.4427 4.66451 20.3329 4.46916 20.1376C4.27381 19.9422 4.16406 19.6773 4.16406 19.401C4.16406 19.1247 4.27381 18.8598 4.46916 18.6644C4.66451 18.4691 4.92946 18.3593 5.20573 18.3593H6.42448Z" fill="currentColor"/>
</svg>
