  <svg
    width="52"
    height="52"
    viewBox="0 0 52 52"
    fill="none"
    xmlns="http://www.w3.org/2000/svg"
  >
    <rect width="52" height="51.2732" rx="10" fill="currentColor" />
    <path
      d="M26 11C24.0302 11 22.0796 11.388 20.2597 12.1418C18.4399 12.8956 16.7863 14.0005 15.3934 15.3934C12.5804 18.2064 11 22.0218 11 26C11 32.63 15.305 38.255 21.26 40.25C22.01 40.37 22.25 39.905 22.25 39.5V36.965C18.095 37.865 17.21 34.955 17.21 34.955C16.52 33.215 15.545 32.75 15.545 32.75C14.18 31.82 15.65 31.85 15.65 31.85C17.15 31.955 17.945 33.395 17.945 33.395C19.25 35.675 21.455 35 22.31 34.64C22.445 33.665 22.835 33.005 23.255 32.63C19.925 32.255 16.43 30.965 16.43 25.25C16.43 23.585 17 22.25 17.975 21.185C17.825 20.81 17.3 19.25 18.125 17.225C18.125 17.225 19.385 16.82 22.25 18.755C23.435 18.425 24.725 18.26 26 18.26C27.275 18.26 28.565 18.425 29.75 18.755C32.615 16.82 33.875 17.225 33.875 17.225C34.7 19.25 34.175 20.81 34.025 21.185C35 22.25 35.57 23.585 35.57 25.25C35.57 30.98 32.06 32.24 28.715 32.615C29.255 33.08 29.75 33.995 29.75 35.39V39.5C29.75 39.905 29.99 40.385 30.755 40.25C36.71 38.24 41 32.63 41 26C41 24.0302 40.612 22.0796 39.8582 20.2597C39.1044 18.4399 37.9995 16.7863 36.6066 15.3934C35.2137 14.0005 33.5601 12.8956 31.7403 12.1418C29.9204 11.388 27.9698 11 26 11Z"
      fill="white"
    />
  </svg>