<svg width="16" height="16" viewBox="0 0 16 16" fill="none" xmlns="http://www.w3.org/2000/svg">
<path d="M7.5 1C5.77609 1 4.12279 1.68482 2.90381 2.90381C1.68482 4.12279 1 5.77609 1 7.5C1 9.22391 1.68482 10.8772 2.90381 12.0962C4.12279 13.3152 5.77609 14 7.5 14C9.22391 14 10.8772 13.3152 12.0962 12.0962C13.3152 10.8772 14 9.22391 14 7.5C14 5.77609 13.3152 4.12279 12.0962 2.90381C10.8772 1.68482 9.22391 1 7.5 1ZM7.5 13C6.04131 13 4.64236 12.4205 3.61091 11.3891C2.57946 10.3576 2 8.95869 2 7.5C2 6.04131 2.57946 4.64236 3.61091 3.61091C4.64236 2.57946 6.04131 2 7.5 2C8.95869 2 10.3576 2.57946 11.3891 3.61091C12.4205 4.64236 13 6.04131 13 7.5C13 8.95869 12.4205 10.3576 11.3891 11.3891C10.3576 12.4205 8.95869 13 7.5 13Z" fill="black"/>
<path d="M7.5 8.5C8.05228 8.5 8.5 8.05228 8.5 7.5C8.5 6.94772 8.05228 6.5 7.5 6.5C6.94772 6.5 6.5 6.94772 6.5 7.5C6.5 8.05228 6.94772 8.5 7.5 8.5Z" fill="currentColor"/>
</svg>
