<svg width="14" height="17" viewBox="0 0 14 17" fill="none" xmlns="http://www.w3.org/2000/svg">
<path d="M13.0778 7.33566L4.44176 16.2157C4.20176 16.4617 3.80376 16.1767 3.95976 15.8707L7.03376 9.80466C7.05704 9.75888 7.06818 9.70788 7.06611 9.65656C7.06404 9.60524 7.04883 9.55531 7.02193 9.51156C6.99504 9.4678 6.95736 9.43168 6.9125 9.40666C6.86765 9.38164 6.81712 9.36855 6.76576 9.36866H0.299757C0.240699 9.36861 0.182969 9.35113 0.133802 9.31841C0.0846347 9.2857 0.046218 9.23919 0.0233668 9.18473C0.000515729 9.13028 -0.00575341 9.07028 0.00534526 9.01228C0.0164439 8.95427 0.0444169 8.90083 0.0857577 8.85866L8.09576 0.743657C8.32776 0.508657 8.71376 0.766657 8.58476 1.07166L6.28776 6.48666C6.26831 6.53256 6.26061 6.5826 6.26535 6.63223C6.2701 6.68186 6.28714 6.72952 6.31493 6.77092C6.34272 6.81231 6.38039 6.84612 6.42454 6.8693C6.46868 6.89247 6.5179 6.90428 6.56776 6.90366L12.8588 6.82566C12.9181 6.8247 12.9764 6.84139 13.0263 6.8736C13.0762 6.90581 13.1154 6.95209 13.139 7.00659C13.1625 7.0611 13.1694 7.12136 13.1587 7.17976C13.1479 7.23816 13.1201 7.29207 13.0788 7.33466L13.0778 7.33566Z" fill="#2d2d2d"/>
</svg>
