<svg width="35" height="34" viewBox="0 0 35 34" fill="none" xmlns="http://www.w3.org/2000/svg">
<g clip-path="url(#clip0_3037_4097)">
<path d="M5 4H30L32.2986 5.8389L35 8V34H5V4Z" fill="#396BEB"/>
<path d="M30 0H0V30H30V0Z" fill="#F6F0E6"/>
<path d="M19.1259 11.9981C19.0699 11.2997 18.8077 10.7549 18.3392 10.3638C17.8776 9.9727 17.1748 9.77714 16.2308 9.77714C15.6294 9.77714 15.1364 9.85048 14.7517 9.99714C14.3741 10.1368 14.0944 10.3289 13.9126 10.5733C13.7308 10.8178 13.6364 11.0971 13.6294 11.4114C13.6154 11.6698 13.6608 11.9038 13.7657 12.1133C13.8776 12.3159 14.0524 12.501 14.2902 12.6686C14.528 12.8292 14.8322 12.9759 15.2028 13.1086C15.5734 13.2413 16.014 13.36 16.5245 13.4648L18.2867 13.8419C19.4755 14.0933 20.493 14.4251 21.3392 14.8371C22.1853 15.2492 22.8776 15.7346 23.4161 16.2933C23.9545 16.8451 24.3497 17.4667 24.6014 18.1581C24.8601 18.8495 24.993 19.6038 25 20.421C24.993 21.8317 24.6399 23.026 23.9406 24.0038C23.2413 24.9816 22.2413 25.7254 20.9406 26.2352C19.6469 26.7451 18.0909 27 16.2727 27C14.4056 27 12.7762 26.7241 11.3846 26.1724C10 25.6206 8.92308 24.7721 8.15385 23.6267C7.39161 22.4743 7.00699 21.0006 7 19.2057H12.5385C12.5734 19.8622 12.7378 20.414 13.0315 20.861C13.3252 21.3079 13.7378 21.6467 14.2692 21.8771C14.8077 22.1076 15.4476 22.2229 16.1888 22.2229C16.8112 22.2229 17.3322 22.146 17.7517 21.9924C18.1713 21.8387 18.4895 21.6257 18.7063 21.3533C18.9231 21.081 19.035 20.7702 19.042 20.421C19.035 20.0927 18.9266 19.8063 18.7168 19.5619C18.514 19.3105 18.1783 19.087 17.7098 18.8914C17.2413 18.6889 16.6084 18.5003 15.8112 18.3257L13.6713 17.8648C11.7692 17.4527 10.2692 16.7648 9.17133 15.801C8.08042 14.8302 7.53846 13.5067 7.54545 11.8305C7.53846 10.4686 7.9021 9.27778 8.63636 8.2581C9.37762 7.23143 10.4021 6.43175 11.7098 5.85905C13.0245 5.28635 14.5315 5 16.2308 5C17.965 5 19.465 5.28984 20.7308 5.86952C21.9965 6.44921 22.972 7.26635 23.6573 8.32095C24.3497 9.36857 24.6993 10.5943 24.7063 11.9981H19.1259Z" fill="#396BEB"/>
</g>
<defs>
<clipPath id="clip0_3037_4097">
<rect width="35" height="34" fill="white"/>
</clipPath>
</defs>
</svg>
