<svg width="24" height="27" viewBox="0 0 24 27" fill="none" xmlns="http://www.w3.org/2000/svg">
<path d="M12.4666 26.5293C6.09712 26.5293 3.03448 23.0144 1.58355 20.0637C0.147871 17.1369 0.0272986 14.2355 0.0171237 13.8219C-0.229617 9.90459 2.10297 2.03025 12.7144 0.0247818C12.8985 -0.00999239 13.0877 -0.00815323 13.2712 0.0301944C13.4546 0.0685421 13.6287 0.142647 13.7835 0.248279C13.9383 0.35391 14.0708 0.488999 14.1734 0.645833C14.276 0.802667 14.3467 0.978174 14.3815 1.16233C14.4163 1.34649 14.4144 1.5357 14.3761 1.71915C14.3378 1.9026 14.2636 2.0767 14.158 2.23151C14.0524 2.38631 13.9173 2.5188 13.7605 2.6214C13.6036 2.72401 13.4281 2.79471 13.244 2.82949C2.40161 4.87871 2.8432 13.3096 2.86558 13.6657C2.86558 13.6927 2.86863 13.7197 2.86914 13.7471C2.87677 14.149 3.1286 23.6758 12.4666 23.6758C15.9434 23.6758 18.3986 22.1801 19.7722 19.2309C21.0176 16.5478 20.7535 13.5101 19.0843 11.3031C17.9198 9.76316 16.4155 9.01378 14.4863 9.01378C12.7332 9.01378 11.2573 9.51642 10.1004 10.508C9.61849 10.9206 9.22596 11.4273 8.94697 11.9971C8.66798 12.5669 8.5084 13.1877 8.47805 13.8214C8.40631 15.1136 8.84129 16.3326 9.70259 17.2549C10.4759 18.0796 11.3779 18.4815 12.4666 18.4815C13.8636 18.4815 14.7824 18.0236 15.1965 17.1176C15.6228 16.1866 15.3802 15.137 15.1869 14.9132C14.7234 14.4044 14.236 14.2172 14.0432 14.2518C13.9145 14.2737 13.7491 14.4863 13.6118 14.8074C13.5383 14.9797 13.4316 15.1358 13.2978 15.2669C13.1639 15.3979 13.0056 15.5013 12.8318 15.5712C12.658 15.6411 12.4721 15.676 12.2848 15.6741C12.0975 15.6721 11.9124 15.6333 11.7401 15.5598C11.5678 15.4863 11.4117 15.3796 11.2806 15.2458C11.1496 15.1119 11.0461 14.9536 10.9763 14.7798C10.9064 14.606 10.8714 14.4201 10.8734 14.2328C10.8754 14.0455 10.9142 13.8604 10.9877 13.6881C11.7142 11.9869 12.9179 11.5514 13.5701 11.4395C14.8307 11.2268 16.2242 11.8109 17.3012 12.9988C18.3782 14.1867 18.599 16.4862 17.8176 18.25C17.3068 19.4023 15.9322 21.3356 12.4666 21.3356C10.5985 21.3356 8.92218 20.5984 7.61878 19.2029C6.22126 17.7072 5.51563 15.7394 5.62908 13.6632C5.68471 12.6464 5.9445 11.6512 6.39298 10.7369C6.84145 9.82269 7.46942 9.0081 8.23945 8.34173C9.92797 6.89435 12.0286 6.16074 14.4822 6.16074C17.2864 6.16074 19.6638 7.34357 21.3564 9.58103C23.6641 12.6335 24.0476 16.7904 22.3566 20.4325C21.0669 23.2138 18.3029 26.5293 12.4666 26.5293Z" fill="#EC4182"/>
</svg>
