<svg width="358" height="126" viewBox="0 0 358 126" fill="none" xmlns="http://www.w3.org/2000/svg">
<rect x="0.5" y="0.5" width="357" height="125" rx="7.5" fill="#151A1A"/>
<rect x="0.5" y="0.5" width="357" height="125" rx="7.5" stroke="#E1DBD0"/>
<g clip-path="url(#clip0_1599_13177)">
<path d="M142.329 78.7823V67.0496H139.596V80.9835H147.415L148.543 78.7823H142.329ZM153.043 67.0496H155.765V80.9835H153.043V67.0496ZM186.911 80.9835V67.0496H184.178V72.6737H178.897V67.0496H176.175V80.9835H178.897V74.8643H184.178V80.9835H186.911ZM201.508 67.0496H192.041L190.891 69.2613H194.838V80.9835H197.56V69.2613H200.358L201.508 67.0496ZM216.267 80.9835V67.0496H213.697V76.223L207.809 67.0496H205.531V80.9835H208.112V71.9364L213.979 80.9835H216.267ZM221.766 67.0496H224.488V80.9835H221.766V67.0496ZM240.69 80.9835V67.0496H238.109V76.223L232.22 67.0496H229.953V80.9835H232.524V71.9364L238.391 80.9835H240.69ZM249.669 81.0467C249.853 81.0888 250.038 81.1204 250.222 81.152L250.265 81.1625C250.558 81.2046 250.818 81.2152 251.068 81.2152C251.274 81.2152 251.491 81.2046 251.729 81.1836H251.773C251.784 81.1836 251.794 81.1836 251.805 81.173C251.816 81.173 251.838 81.1625 251.86 81.1625C253.367 81.0466 254.636 80.4884 255.623 79.53C256.62 78.5611 257 77.3604 257 75.2435V73.2213H252.814L251.588 75.4331H254.278V76.0229C254.278 76.8549 254.05 77.5079 253.606 77.9502C253.042 78.519 252.369 78.6769 251.849 78.7507C251.643 78.7823 251.426 78.8033 251.231 78.8033C249.43 78.8033 247.608 77.3288 247.608 74.0428C247.608 71.6626 248.693 69.2613 251.122 69.2613C251.296 69.2613 251.469 69.2718 251.653 69.2929C252.64 69.4509 253.801 70.0828 254.169 71.1571L256.479 69.8405C256.208 69.3245 254.939 67.2286 251.794 66.9126H251.74C251.502 66.8916 251.274 66.881 251.068 66.881C250.602 66.881 250.124 66.9337 249.669 67.039L249.604 67.0496L249.571 67.0601C249.485 67.0811 249.398 67.1022 249.3 67.1338C246.481 67.9132 244.767 70.5673 244.832 74.0639C244.832 77.6027 246.589 80.2567 249.409 80.994V81.0256H249.42L249.43 81.0045C249.517 81.0151 249.593 81.0361 249.669 81.0467ZM164.68 81.0467C164.864 81.0888 165.048 81.1204 165.233 81.152L165.276 81.1625C165.569 81.2046 165.829 81.2152 166.079 81.2152C166.285 81.2152 166.501 81.2046 166.74 81.1836H166.783C166.794 81.1836 166.805 81.1836 166.816 81.173C166.827 81.173 166.849 81.1625 166.87 81.1625C168.378 81.0466 169.646 80.4884 170.633 79.53C171.631 78.5611 172.011 77.3604 172.011 75.2435V73.2213H167.825L166.599 75.4331H169.289V76.0229C169.289 76.8549 169.061 77.5079 168.616 77.9502C168.052 78.519 167.38 78.6769 166.859 78.7507C166.653 78.7823 166.436 78.8033 166.241 78.8033C164.441 78.8033 162.619 77.3288 162.619 74.0428C162.619 71.6626 163.704 69.2613 166.133 69.2613C166.306 69.2613 166.48 69.2718 166.664 69.2929C167.651 69.4509 168.811 70.0828 169.18 71.1571L171.49 69.8405C171.219 69.3245 169.95 67.2286 166.805 66.9126H166.751C166.512 66.8916 166.285 66.881 166.079 66.881C165.612 66.881 165.135 66.9337 164.68 67.039L164.615 67.0496L164.582 67.0601C164.495 67.0811 164.408 67.1022 164.311 67.1338C161.491 67.9132 159.778 70.5673 159.843 74.0639C159.843 77.6027 161.6 80.2567 164.419 80.994V81.0256H164.43L164.441 81.0045C164.517 81.0151 164.593 81.0361 164.68 81.0467Z" fill="white"/>
<path d="M175.101 53.4737L177.693 58.9715H180.686L177.693 52.9893L177.813 52.9471C179.418 52.3047 180.231 51.0619 180.231 49.2504C180.231 46.5331 178.333 45.0376 174.895 45.0376H169.788V58.9715H172.51V53.4105H175.069L175.101 53.4737ZM172.51 51.2199V47.2598H174.613C176.045 47.2598 177.498 47.5021 177.498 49.2609C177.498 50.9882 176.11 51.2199 174.613 51.2199H172.51ZM193.884 47.2493V45.0376H185.035V58.9715H193.884V56.7808H187.757V52.8523H193.255V50.6617H187.757V47.2493H193.884ZM144.997 56.8966C144.812 56.9177 144.628 56.9388 144.455 56.9388C141.96 56.9388 140.843 54.4848 140.843 52.0519C140.843 49.619 141.96 47.165 144.455 47.165C144.628 47.165 144.812 47.1756 144.997 47.2072C145.984 47.3651 147.155 47.9971 147.567 49.0608L149.768 47.797C149.411 47.1334 148.131 45.2377 145.127 44.9322L145.018 44.9217C144.791 44.9006 144.596 44.8901 144.4 44.8901C143.934 44.8901 143.468 44.9428 143.012 45.0481L142.915 45.0692C142.828 45.0902 142.741 45.1113 142.654 45.1429C139.846 45.9223 138.143 48.5553 138.186 52.0203V52.0835C138.143 55.5485 139.846 58.1816 142.654 58.9609C142.741 58.9925 142.828 59.0136 142.915 59.0347L143.012 59.0557C143.468 59.161 143.934 59.2137 144.4 59.2137C144.596 59.2137 144.791 59.2032 145.018 59.1821L145.127 59.1716C148.131 58.8767 149.411 56.9704 149.768 56.3069L147.567 55.043C147.155 56.1067 145.984 56.7387 144.997 56.8966ZM165.743 51.9887V51.9782C165.764 50.3352 165.385 48.8818 164.701 47.7127C164.506 47.3546 164.04 46.6384 163.194 46.0065C163.162 45.9854 163.14 45.9644 163.107 45.9433C163.042 45.8907 162.966 45.8485 162.89 45.7959C162.392 45.4694 161.838 45.2061 161.242 45.0376C161.155 45.006 161.069 44.9849 160.982 44.9638L160.884 44.9428C160.429 44.8375 159.952 44.7848 159.485 44.7848H159.29C158.813 44.7848 158.347 44.8375 157.891 44.9428L157.793 44.9638C157.707 44.9849 157.62 45.006 157.533 45.0376C156.926 45.2061 156.384 45.4588 155.885 45.7959C155.809 45.838 155.744 45.8907 155.668 45.9433C155.635 45.9644 155.614 45.9854 155.581 46.0065C154.735 46.6384 154.269 47.3546 154.074 47.7127C153.38 48.8818 153.011 50.3352 153.033 51.9782V52.0414C153.011 53.6844 153.391 55.1378 154.074 56.3069C154.269 56.6649 154.735 57.3811 155.581 58.013C155.614 58.0341 155.635 58.0552 155.668 58.0762C155.733 58.1289 155.809 58.171 155.885 58.2237C156.384 58.5502 156.937 58.8135 157.533 58.982C157.62 59.0136 157.707 59.0347 157.793 59.0557L157.891 59.0768C158.347 59.1821 158.824 59.2348 159.29 59.2348H159.485C159.962 59.2348 160.429 59.1821 160.884 59.0768L160.982 59.0557C161.069 59.0347 161.155 59.0136 161.242 58.982C161.849 58.8135 162.392 58.5607 162.89 58.2237C162.966 58.1816 163.031 58.1289 163.107 58.0762C163.14 58.0552 163.162 58.0341 163.194 58.013C164.04 57.3811 164.506 56.6649 164.701 56.3069C165.396 55.1378 165.764 53.6844 165.743 52.0414V52.0308V52.0098V51.9887ZM161.069 56.4964C160.678 56.6965 160.266 56.8335 159.886 56.8966C159.713 56.9177 159.55 56.9282 159.377 56.9282C159.214 56.9282 159.041 56.9177 158.867 56.8966C158.477 56.8335 158.065 56.6965 157.685 56.4964C156.319 55.6749 155.7 53.8424 155.7 52.0098C155.7 50.1772 156.329 48.3446 157.685 47.5231C158.075 47.323 158.487 47.1861 158.867 47.1229C159.041 47.1018 159.203 47.0913 159.377 47.0913C159.539 47.0913 159.713 47.1018 159.886 47.1229C160.277 47.1861 160.689 47.323 161.069 47.5231C162.435 48.3446 163.053 50.1772 163.053 52.0098C163.064 53.8424 162.435 55.6749 161.069 56.4964Z" fill="#F0D003"/>
<path d="M124.273 34L101.239 64.1006L127.721 57.4127L111.855 57.4233L124.273 34Z" fill="#F0D003"/>
<path d="M104.449 92L127.472 61.8994L101 68.5873L116.866 68.5767L104.449 92Z" fill="#FFFAE6"/>
</g>
<defs>
<clipPath id="clip0_1599_13177">
<rect width="156" height="58" fill="white" transform="translate(101 34)"/>
</clipPath>
</defs>
</svg>
