<svg width="1400" height="500" viewBox="-30 -100 1470 600" fill="none" xmlns="http://www.w3.org/2000/svg">
<g clip-path="url(#clip0_24_77)">
<path d="M133.062 0H66.5312V66.2343H133.062V0Z" fill="#346C60" style="fill:#346C60;fill:color(display-p3 0.2039 0.4235 0.3765);fill-opacity:1;"/>
<path d="M66.5308 66.2343H0V132.469H66.5308V66.2343Z" fill="#346C60" style="fill:#346C60;fill:color(display-p3 0.2039 0.4235 0.3765);fill-opacity:1;"/>
<path d="M133.062 132.473H66.5312V198.708H133.062V132.473Z" fill="#346C60" style="fill:#346C60;fill:color(display-p3 0.2039 0.4235 0.3765);fill-opacity:1;"/>
<path d="M332.663 63.4791H133.066V129.713H332.663V63.4791Z" fill="#346C60" style="fill:#346C60;fill:color(display-p3 0.2039 0.4235 0.3765);fill-opacity:1;"/>
<path fill-rule="evenodd" clip-rule="evenodd" d="M265.076 198.708H133.067V199.234H132.538V330.659H199.074V264.947H265.076V198.708Z" fill="#346C60" style="fill:#346C60;fill:color(display-p3 0.2039 0.4235 0.3765);fill-opacity:1;"/>
</g>
<path d="M1277.29 184.127C1277.29 173.961 1278.87 164.76 1282.03 156.523C1285.18 148.11 1289.56 140.924 1295.17 134.965C1300.96 129.006 1307.88 124.449 1315.94 121.294C1324 117.964 1332.94 116.299 1342.76 116.299C1350.47 116.299 1357.92 117.964 1365.1 121.294C1372.29 124.449 1377.81 128.393 1381.67 133.125V117.614H1407.95V249.062H1381.67V235.129C1377.63 240.211 1372.03 244.33 1364.84 247.485C1357.83 250.464 1350.47 251.954 1342.76 251.954C1332.94 251.954 1324 250.377 1315.94 247.222C1307.88 243.892 1300.96 239.248 1295.17 233.289C1289.56 227.33 1285.18 220.231 1282.03 211.994C1278.87 203.581 1277.29 194.292 1277.29 184.127ZM1303.58 184.127C1303.58 196.746 1307.09 206.824 1314.1 214.36C1321.29 221.896 1330.84 225.665 1342.76 225.665C1354.5 225.665 1363.88 221.896 1370.89 214.36C1378.07 206.824 1381.67 196.746 1381.67 184.127C1381.67 171.508 1378.07 161.43 1370.89 153.894C1363.88 146.357 1354.5 142.589 1342.76 142.589C1330.84 142.589 1321.29 146.357 1314.1 153.894C1307.09 161.43 1303.58 171.508 1303.58 184.127Z" fill="#346C60" style="fill:#346C60;fill:color(display-p3 0.2039 0.4235 0.3765);fill-opacity:1;"/>
<path d="M1214.92 86.0662V117.614H1261.45V138.646H1214.92V207.525C1214.92 214.009 1216.76 219.092 1220.44 222.773C1224.29 226.278 1229.55 228.031 1236.21 228.031C1242.17 228.031 1248.57 226.628 1255.4 223.824V249.062C1252.07 249.763 1248.83 250.202 1245.67 250.377C1242.7 250.727 1239.72 250.903 1236.74 250.903C1221.49 250.903 1209.66 247.134 1201.25 239.598C1192.83 232.062 1188.63 221.371 1188.63 207.525V138.646H1164.18V132.073L1188.63 117.877V86.0662H1214.92Z" fill="#346C60" style="fill:#346C60;fill:color(display-p3 0.2039 0.4235 0.3765);fill-opacity:1;"/>
<path d="M1100.38 113.933C1112.3 113.933 1122.91 115.949 1132.19 119.98C1141.48 123.836 1149.02 129.532 1154.8 137.068L1139.29 156.523C1137.54 154.419 1135.35 152.404 1132.72 150.476C1130.27 148.373 1127.46 146.445 1124.31 144.692C1121.15 142.94 1117.65 141.537 1113.79 140.486C1110.11 139.434 1106.17 138.908 1101.96 138.908C1094.25 138.908 1087.5 139.785 1081.72 141.537C1076.11 143.115 1072.69 146.445 1071.47 151.528C1070.41 156.26 1072.52 160.378 1077.77 163.884C1083.21 167.214 1090.39 168.879 1099.33 168.879C1108.27 168.879 1116.33 170.018 1123.52 172.296C1130.7 174.575 1136.66 177.73 1141.4 181.761C1146.3 185.792 1149.9 190.699 1152.17 196.483C1154.45 202.267 1155.24 208.751 1154.54 215.937C1153.49 227.505 1148.14 236.531 1138.5 243.016C1129.04 249.325 1116.6 252.48 1101.17 252.48C1089.25 252.48 1078.65 250.552 1069.36 246.696C1060.07 242.665 1052.54 236.881 1046.75 229.345L1062.26 209.891C1064.02 211.994 1066.12 214.097 1068.57 216.2C1071.2 218.128 1074.09 219.968 1077.25 221.721C1080.4 223.474 1083.82 224.876 1087.5 225.927C1091.36 226.979 1095.39 227.505 1099.6 227.505C1108.01 227.505 1114.93 226.19 1120.36 223.561C1125.97 220.757 1129.21 216.901 1130.09 211.994C1132.19 199.024 1121.94 192.101 1099.33 191.225C1081.28 190.524 1067.7 186.493 1058.58 179.132C1049.47 171.595 1045.61 161.079 1047.02 147.584C1048.07 137.068 1053.33 128.831 1062.79 122.872C1072.43 116.913 1084.96 113.933 1100.38 113.933Z" fill="#346C60" style="fill:#346C60;fill:color(display-p3 0.2039 0.4235 0.3765);fill-opacity:1;"/>
<path d="M962.03 116.299C972.195 116.299 981.309 118.14 989.371 121.82C997.609 125.501 1004.53 130.759 1010.14 137.594C1015.92 144.254 1020.31 152.404 1023.29 162.043C1026.44 171.683 1028.02 182.549 1028.02 194.643H924.699C926.627 204.107 930.921 211.643 937.581 217.252C944.241 222.86 952.566 225.665 962.556 225.665C969.742 225.665 976.139 223.999 981.747 220.669C987.531 217.339 991.913 213.571 994.892 209.365L1014.87 227.768C1008.91 235.655 1001.38 241.614 992.263 245.645C983.15 249.501 972.897 251.428 961.504 251.428C951.865 251.428 943.014 249.763 934.952 246.433C927.065 242.928 920.23 238.196 914.446 232.237C908.662 226.103 904.105 219.004 900.775 210.942C897.62 202.705 896.043 193.766 896.043 184.127C896.043 174.137 897.62 165.023 900.775 156.785C904.105 148.373 908.662 141.187 914.446 135.228C920.23 129.269 927.152 124.624 935.215 121.294C943.452 117.964 952.391 116.299 962.03 116.299ZM962.819 142.589C953.705 142.589 945.906 144.867 939.421 149.424C933.111 153.981 928.642 160.291 926.013 168.353H999.362C996.733 160.291 992.263 153.981 985.954 149.424C979.644 144.867 971.933 142.589 962.819 142.589Z" fill="#346C60" style="fill:#346C60;fill:color(display-p3 0.2039 0.4235 0.3765);fill-opacity:1;"/>
<path d="M825.544 117.614V142.852C827.472 138.996 830.451 135.403 834.482 132.073C838.513 128.568 843.245 125.588 848.679 123.135C854.112 120.506 859.983 118.49 866.293 117.088C872.777 115.511 879.175 114.722 885.484 114.722V141.012C877.597 141.012 869.973 142.063 862.612 144.166C855.426 146.094 849.029 148.723 843.421 152.053C837.987 155.383 833.606 159.239 830.276 163.621C827.121 168.002 825.544 172.559 825.544 177.291V249.062H799.254V117.614H825.544Z" fill="#346C60" style="fill:#346C60;fill:color(display-p3 0.2039 0.4235 0.3765);fill-opacity:1;"/>
<path d="M644.956 184.127C644.956 173.961 646.533 164.76 649.688 156.523C652.843 148.11 657.225 140.924 662.833 134.965C668.617 129.006 675.54 124.449 683.602 121.294C691.664 117.964 700.603 116.299 710.417 116.299C720.232 116.299 729.083 117.964 736.97 121.294C745.032 124.449 751.868 129.006 757.476 134.965C763.26 140.924 767.729 148.11 770.884 156.523C774.039 164.76 775.616 173.961 775.616 184.127C775.616 194.292 774.039 203.581 770.884 211.994C767.729 220.231 763.26 227.33 757.476 233.289C751.868 239.248 745.032 243.892 736.97 247.222C729.083 250.377 720.232 251.954 710.417 251.954C700.603 251.954 691.664 250.377 683.602 247.222C675.54 243.892 668.617 239.248 662.833 233.289C657.225 227.33 652.843 220.231 649.688 211.994C646.533 203.581 644.956 194.292 644.956 184.127ZM671.246 184.127C671.246 196.746 674.751 206.824 681.762 214.36C688.948 221.896 698.499 225.665 710.417 225.665C722.16 225.665 731.537 221.896 738.547 214.36C745.733 206.824 749.326 196.746 749.326 184.127C749.326 171.508 745.733 161.43 738.547 153.894C731.537 146.357 722.16 142.589 710.417 142.589C698.499 142.589 688.948 146.357 681.762 153.894C674.751 161.43 671.246 171.508 671.246 184.127Z" fill="#346C60" style="fill:#346C60;fill:color(display-p3 0.2039 0.4235 0.3765);fill-opacity:1;"/>
<path d="M621.439 78.1793V249.062H595.149V78.1793H621.439Z" fill="#346C60" style="fill:#346C60;fill:color(display-p3 0.2039 0.4235 0.3765);fill-opacity:1;"/>
<path d="M457.539 78.1793H571.636V104.206H483.829V150.476H571.636V176.766H483.829V249.062H457.539V78.1793Z" fill="#346C60" style="fill:#346C60;fill:color(display-p3 0.2039 0.4235 0.3765);fill-opacity:1;"/>
<defs>
<clipPath id="clip0_24_77">
<rect width="332.663" height="330.659" fill="white" style="fill:white;fill-opacity:1;"/>
</clipPath>
</defs>
</svg>
